<?xml version="1.0" encoding="iso-8859-1"?>
<!-- Uploaded to: SVG Repo, www.svgrepo.com, Generator: SVG Repo Mixer Tools -->
<svg version="1.1" id="Layer_1" xmlns="http://www.w3.org/2000/svg" xmlns:xlink="http://www.w3.org/1999/xlink" 
	 viewBox="0 0 392.727 392.727" xml:space="preserve">
<rect x="21.947" y="21.85" style="fill:#FFC10D;" width="185.794" height="19.523"/>
<path style="fill:#56ACE0;" d="M114.844,165.236c39.628,0,72.275-45.059,75.313-102.012H39.466
	C42.569,120.307,75.216,165.236,114.844,165.236z"/>
<path style="fill:#FFC10D;" d="M183.24,314.117c-0.905-2.004-1.745-4.008-2.521-6.077l-158.707,0.323v19.523h148.234
	C170.634,326.982,183.24,314.117,183.24,314.117z"/>
<path style="fill:#56ACE0;" d="M153.826,286.513v-37.172c0-6.012,4.848-10.925,10.925-10.925h15.838
	c0.776-2.069,1.616-4.073,2.521-6.077l-0.259-0.259c-4.073,0.388-8.339-1.552-10.537-5.301
	c-14.545-24.954-35.556-39.305-57.6-39.305c-38.917,0-70.982,43.507-75.119,99.038H153.826z"/>
<path style="fill:#FFC10D;" d="M347.507,252.25c-1.681-5.947-4.008-11.572-6.853-16.743c-2.392-4.267-1.616-9.568,1.745-13.059
	l9.051-9.115l-18.36-18.36l-8.986,9.115c-3.491,3.491-8.792,4.202-13.059,1.745c-5.172-2.909-10.796-5.236-16.743-6.853
	c-4.719-1.293-7.952-5.624-7.952-10.537v-12.929h-25.988v12.929c0,4.848-3.232,9.18-7.952,10.537
	c-5.947,1.681-11.572,4.008-16.743,6.853c-4.267,2.392-9.568,1.616-13.059-1.745l-9.115-9.051l-18.36,18.295l9.115,9.115
	c3.491,3.491,4.202,8.792,1.745,13.059c-2.909,5.172-5.236,10.796-6.853,16.743c-1.293,4.719-5.624,7.952-10.537,7.952h-12.929
	v25.988h12.929c4.848,0,9.18,3.232,10.537,7.952c1.681,5.947,4.008,11.572,6.982,16.743c2.392,4.267,1.616,9.568-1.745,13.059
	l-9.051,9.115l18.36,18.36l9.115-9.051c3.491-3.491,8.792-4.202,13.059-1.745c5.172,2.909,10.796,5.236,16.743,6.853
	c4.719,1.293,7.952,5.624,7.952,10.537v12.929h25.988v-12.929c0-4.848,3.232-9.18,7.952-10.537
	c5.947-1.681,11.572-4.008,16.743-6.853c4.267-2.392,9.568-1.681,13.059,1.745l9.051,9.051l18.36-18.36l-9.051-9.115
	c-3.491-3.491-4.202-8.792-1.745-13.059c2.909-5.172,5.236-10.796,6.853-16.743c1.293-4.719,5.624-7.952,10.537-7.952h12.929
	v-25.988h-12.929C353.131,260.267,348.8,256.97,347.507,252.25z M273.293,323.62c-27.733,0-50.36-22.562-50.36-50.36
	c0-27.733,22.562-50.36,50.36-50.36c27.733,0,50.36,22.562,50.36,50.36C323.717,300.929,301.026,323.62,273.293,323.62z"/>
<g>
	<path style="fill:#194F82;" d="M273.293,222.836c-27.733,0-50.36,22.562-50.36,50.36c0,27.733,22.562,50.36,50.36,50.36
		c27.733,0,50.36-22.562,50.36-50.36S301.026,222.836,273.293,222.836z M273.293,301.705c-15.774,0-28.574-12.8-28.574-28.574
		s12.8-28.574,28.574-28.574s28.574,12.8,28.574,28.574C301.802,288.97,289.066,301.705,273.293,301.705z"/>
	<path style="fill:#194F82;" d="M381.834,238.351h-15.838c-0.776-2.069-1.616-4.073-2.521-6.077l11.184-11.184
		c4.267-4.267,4.267-11.119,0-15.451l-33.745-33.745c-4.073-4.073-11.378-4.073-15.451,0l-11.184,11.184
		c-2.004-0.905-4.008-1.745-6.077-2.521v-15.903c0-6.012-4.848-10.925-10.925-10.925h-47.838c-6.012,0-10.925,4.848-10.925,10.925
		v15.838c-2.069,0.776-4.073,1.616-6.077,2.521l-11.313-11.184c-4.073-4.073-11.378-4.073-15.451,0l-26.57,26.57
		c-7.758-9.244-16.485-16.679-25.859-22.174c32.776-19.265,56.242-62.255,58.699-113.067h6.594c6.012,0,10.925-4.848,10.925-10.925
		V10.925C229.462,4.913,224.614,0,218.537,0H11.022C5.01,0,0.097,4.848,0.097,10.925v41.438c0,6.012,4.848,10.925,10.925,10.925
		h6.594c2.457,50.877,26.053,93.867,58.893,113.131c-32.194,18.747-55.467,60.574-58.699,110.093h-6.788
		c-6.012,0-10.925,4.848-10.925,10.925v41.438c0,6.012,4.848,10.925,10.925,10.925h169.891l24.824,24.824
		c4.267,4.267,11.119,4.267,15.451,0l11.184-11.184c2.004,0.905,4.008,1.745,6.077,2.521v15.838c0,6.012,4.848,10.925,10.925,10.925
		h47.774c6.012,0,10.925-4.848,10.925-10.925v-15.838c2.069-0.776,4.073-1.616,6.077-2.521l11.184,11.184
		c5.172,4.267,10.343,4.267,15.451,0l33.745-33.745c4.396-5.56,4.073-10.667,0-15.451l-11.184-11.184
		c0.905-2.004,1.745-4.008,2.521-6.077h15.838c6.012,0,10.925-4.848,10.925-10.925v-47.903
		C392.695,243.329,387.846,238.351,381.834,238.351z M370.909,286.19H357.98c-4.848,0-9.18,3.232-10.537,7.952
		c-1.681,5.947-4.008,11.572-6.853,16.743c-2.392,4.267-1.616,9.568,1.745,13.059l9.051,9.115l-18.36,18.424l-9.051-9.051
		c-3.491-3.491-8.792-4.202-13.059-1.745c-5.172,2.909-10.796,5.236-16.743,6.853c-4.719,1.293-7.952,5.624-7.952,10.537v12.929
		h-25.988v-12.929c0-4.848-3.232-9.18-7.952-10.537c-5.947-1.681-11.572-4.008-16.743-6.853c-4.267-2.392-9.568-1.616-13.059,1.745
		l-9.051,8.986l-18.36-18.36l9.051-9.115c3.491-3.491,4.202-8.792,1.745-13.059c-2.909-5.172-5.236-10.796-6.982-16.743
		c-1.293-4.719-5.624-7.952-10.537-7.952h-12.929v-25.988h12.929c4.848,0,9.18-3.232,10.537-7.952
		c1.681-5.947,4.008-11.572,6.853-16.743c2.392-4.267,1.616-9.568-1.745-13.059l-8.857-9.051l18.36-18.36l9.115,9.051
		c3.491,3.491,8.792,4.202,13.059,1.745c5.172-2.909,10.796-5.236,16.743-6.853c4.719-1.293,7.952-5.624,7.952-10.537v-12.929
		h25.988v12.929c0,4.848,3.232,9.18,7.952,10.537c5.947,1.681,11.572,4.008,16.743,6.853c4.267,2.392,9.568,1.681,13.059-1.745
		l9.051-9.051l18.36,18.36l-9.051,9.115c-3.491,3.491-4.202,8.792-1.745,13.059c2.909,5.172,5.236,10.796,6.853,16.743
		c1.293,4.719,5.624,7.951,10.537,7.951h12.929v25.923H370.909z M21.947,308.299l158.707-0.323c0.776,2.069,1.616,4.073,2.521,6.077
		c0,0-12.606,12.929-13.059,13.77H21.947V308.299z M190.157,63.289c-3.103,57.018-35.685,102.012-75.313,102.012
		S42.569,120.242,39.466,63.289H190.157z M114.844,187.475c22.109,0,43.055,14.287,57.6,39.305c2.263,3.814,6.4,5.818,10.537,5.301
		l0.259,0.259c-0.905,2.004-1.745,4.008-2.521,6.077h-15.968c-6.012,0-10.925,4.848-10.925,10.925v37.172H39.725
		C43.798,230.852,75.862,187.475,114.844,187.475z M21.947,21.85h185.794v19.523H21.947V21.85z"/>
</g>
</svg>