<?xml version="1.0" encoding="iso-8859-1"?>
<!-- Uploaded to: SVG Repo, www.svgrepo.com, Generator: SVG Repo Mixer Tools -->
<svg height="800px" width="800px" version="1.1" id="Layer_1" xmlns="http://www.w3.org/2000/svg" xmlns:xlink="http://www.w3.org/1999/xlink" 
	 viewBox="0 0 392.598 392.598" xml:space="preserve">
<path style="fill:#FFFFFF;" d="M21.818,359.822c0,6.012,4.848,10.925,10.925,10.925h327.111c6.012,0,10.925-4.848,10.925-10.925
	V120.178H21.818V359.822z"/>
<path style="fill:#56ACE0;" d="M43.604,120.178v27.927h63.16c6.012,0,10.925,4.848,10.925,10.925
	c0,6.012-4.848,10.925-10.925,10.925h-63.16v29.026h32.323c6.012,0,10.925,4.848,10.925,10.925c0,6.077-4.848,10.925-10.925,10.925
	H43.604V327.24c0,12.024,9.762,21.786,21.786,21.786h261.754c12.024,0,21.786-9.762,21.786-21.786V120.178H43.604z"/>
<path style="fill:#FFC10D;" d="M370.78,32.711c0-6.012-4.848-10.925-10.925-10.925H32.743c-6.012,0-10.925,4.848-10.925,10.925
	v65.616H370.78L370.78,32.711L370.78,32.711z"/>
<g>
	<path style="fill:#194F82;" d="M359.855,0H32.743C14.707,0,0.032,14.675,0.032,32.711v327.111
		c0,18.101,14.675,32.776,32.711,32.776h327.111c18.036,0,32.711-14.675,32.711-32.711V32.711C392.566,14.675,377.891,0,359.855,0z
		 M370.78,359.822c0,6.012-4.848,10.925-10.925,10.925H32.743c-6.012,0-10.925-4.848-10.925-10.925V120.178H370.78L370.78,359.822
		L370.78,359.822z M21.818,32.711c0-6.012,4.848-10.925,10.925-10.925h327.111c6.012,0,10.925,4.848,10.925,10.925v65.616H21.818
		V32.711z"/>
	<path style="fill:#194F82;" d="M88.016,257.616l53.527-38.465c4.59-3.232,10.796-2.263,14.093,2.327
		c3.297,4.59,2.263,10.796-2.327,14.093l-42.02,30.319l42.085,30.19c4.59,3.232,5.56,9.568,2.327,14.093
		c-3.62,5.107-10.602,5.172-14.093,2.327l-53.527-38.465c-2.651-1.939-4.202-4.978-4.202-8.21
		C83.879,262.594,85.43,259.491,88.016,257.616z"/>
	<path style="fill:#194F82;" d="M176.129,331.313c-5.042-2.392-7.24-8.339-4.848-13.446l52.622-112.873
		c2.327-5.042,8.339-7.24,13.446-4.848c5.042,2.392,7.24,8.339,4.848,13.446l-52.622,112.873
		C185.374,334.675,177.552,332.024,176.129,331.313z"/>
	<path style="fill:#194F82;" d="M325.333,257.616l-53.527-38.465c-4.59-3.232-10.796-2.263-14.093,2.327
		c-3.297,4.59-2.263,10.796,2.327,14.093l42.085,30.319l-42.085,30.19c-4.59,3.232-5.56,9.568-2.327,14.093
		c3.62,5.107,10.602,5.172,14.093,2.327l53.527-38.465c2.651-1.939,4.202-4.978,4.202-8.21
		C329.6,262.594,327.984,259.491,325.333,257.616z"/>
	<path style="fill:#194F82;" d="M340.848,49.067H187.636c-6.012,0-10.925,4.848-10.925,10.925c0,6.012,4.848,10.925,10.925,10.925
		h153.212c6.012,0,10.925-4.848,10.925-10.925C351.838,53.915,346.925,49.067,340.848,49.067z"/>
	<path style="fill:#194F82;" d="M148.137,49.067h-27.41c-6.012,0-10.925,4.848-10.925,10.925c0,6.012,4.848,10.925,10.925,10.925
		h27.41c6.012,0,10.925-4.848,10.925-10.925S154.214,49.067,148.137,49.067z"/>
	<path style="fill:#194F82;" d="M79.095,49.067H51.62c-6.012,0-10.925,4.848-10.925,10.925c0,6.012,4.848,10.925,10.925,10.925
		h27.41c6.012,0,10.925-4.848,10.925-10.925S85.107,49.067,79.095,49.067z"/>
</g>
</svg>